Land_normalized_precision_landing11_filtered_grf
version=1
nRows=20
nColumns=37
inDegrees=yes
endheader
time		1_ground_force_vx		1_ground_force_vy		1_ground_force_vz		1_ground_force_px		1_ground_force_py		1_ground_force_pz		1_ground_torque_x		1_ground_torque_y		1_ground_torque_z		2_ground_force_vx		2_ground_force_vy		2_ground_force_vz		2_ground_force_px		2_ground_force_py		2_ground_force_pz		2_ground_torque_x		2_ground_torque_y		2_ground_torque_z		3_ground_force_vx		3_ground_force_vy		3_ground_force_vz		3_ground_force_px		3_ground_force_py		3_ground_force_pz		3_ground_torque_x		3_ground_torque_y		3_ground_torque_z		4_ground_force_vx		4_ground_force_vy		4_ground_force_vz		4_ground_force_px		4_ground_force_py		4_ground_force_pz		4_ground_torque_x		4_ground_torque_y		4_ground_torque_z		
1.082000		5.696255		-56.873732		-40.404522		0.088463		0.000000		0.179552		0.019817		-0.197865		-0.140568		-2.139591		-2.777795		3.571798		-0.306800		0.000000		0.392000		-0.223555		0.004298		-0.328694		0.892686		-0.751997		0.661622		0.381846		1.276119		1.866322		0.025927		0.003957		0.014579		-2.731156		-0.049953		0.461305		-0.350578		1.268837		1.860049		0.011233		-0.009413		-0.018511		
1.084576		5.816607		-67.879058		-51.731362		0.080898		0.000000		0.154234		0.006142		-0.071502		-0.054431		-4.528628		-19.064816		-1.171315		-0.189545		0.000000		0.247842		-0.182048		-0.767023		-0.047503		1.087148		-0.658362		0.681649		0.381823		1.276132		1.866414		0.024923		0.001522		0.012879		-2.755514		-0.176240		0.392725		-0.350608		1.268843		1.860075		0.008853		-0.009526		-0.017279		
1.087152		3.756024		-56.781232		-49.126909		0.069772		0.000000		0.111517		-0.012233		0.186510		0.162026		-6.477863		-36.686302		-7.936304		-0.197942		0.000000		0.239015		-0.319871		-1.811857		-0.392102		1.321884		-0.587789		0.619166		0.381789		1.276155		1.866521		0.023098		0.000091		0.010893		-2.761195		-0.311084		0.348382		-0.350643		1.268840		1.860101		0.006120		-0.010246		-0.015208		
1.089727		-1.058633		-12.563603		-24.979155		-0.017208		0.000000		-0.487967		0.049420		0.407785		0.927116		-6.990641		-49.562017		-15.305753		-0.204313		0.000000		0.233825		-0.369124		-2.617280		-0.808374		1.560299		-0.549327		0.483903		0.381746		1.276187		1.866643		0.020520		-0.000207		0.008738		-2.746743		-0.429170		0.331351		-0.350680		1.268827		1.860129		0.003518		-0.011225		-0.012932		
1.092303		-8.662892		72.390866		25.655736		0.118818		0.000000		0.283110		-0.100212		0.836600		0.295830		-4.996579		-49.662112		-20.853013		-0.213174		0.000000		0.228941		-0.272744		-2.711064		-1.138427		1.770037		-0.542160		0.297646		0.381695		1.276225		1.866776		0.017460		0.000306		0.006500		-2.713730		-0.508111		0.338699		-0.350714		1.268810		1.860163		0.001578		-0.012038		-0.011064		
1.094879		-18.351448		199.375425		102.554870		0.095997		0.000000		0.217549		-0.157613		1.711902		0.880395		0.357235		-28.463102		-21.423376		-0.237976		0.000000		0.219705		0.016219		-1.383058		-1.037582		1.927692		-0.556623		0.085890		0.381641		1.276263		1.866915		0.014329		0.001042		0.004268		-2.666889		-0.534067		0.363258		-0.350739		1.268792		1.860205		0.000660		-0.012321		-0.010054		
1.097455		-28.664829		361.696093		198.603717		0.088567		0.000000		0.196488		-0.215868		2.723770		1.495586		9.367793		20.894152		-13.776334		-0.159241		0.000000		0.211380		-0.173018		-0.367479		0.267326		2.020713		-0.577705		-0.128725		0.381588		1.276293		1.867053		0.011550		0.001456		0.002168		-2.613432		-0.504516		0.395345		-0.350754		1.268775		1.860255		0.000772		-0.011902		-0.010118		
1.100030		-37.658708		545.411630		299.796463		0.084070		0.000000		0.185392		-0.283881		4.111533		2.259980		21.495701		101.287221		4.497359		-0.171910		0.000000		0.225332		0.863581		4.070136		0.181291		2.048445		-0.589885		-0.329818		0.381538		1.276309		1.867181		0.009411		0.001249		0.000374		-2.560960		-0.427302		0.424187		-0.350758		1.268763		1.860311		0.001563		-0.010828		-0.011247		
1.102606		-43.505331		732.819397		387.651883		0.080730		0.000000		0.178899		-0.364590		6.142283		3.248993		35.241038		209.623439		33.877256		-0.180003		0.000000		0.221574		1.691425		10.062002		1.626496		2.022705		-0.582139		-0.507527		0.381496		1.276302		1.867292		0.007936		0.000429		-0.000930		-2.514492		-0.317522		0.439241		-0.350756		1.268756		1.860371		0.002462		-0.009337		-0.013263		
1.105182		-45.351338		908.243478		444.498814		0.078234		0.000000		0.175692		-0.457333		9.162118		4.483130		48.363113		336.468245		72.056757		-0.182248		0.000000		0.216993		2.452422		17.062543		3.654243		1.964948		-0.550927		-0.655479		0.381462		1.276270		1.867381		0.006883		-0.000756		-0.001594		-2.473704		-0.194065		0.431751		-0.350752		1.268752		1.860430		0.002931		-0.007755		-0.015862		
1.107758		-43.972909		1062.538474		459.314813		0.076762		0.000000		0.175442		-0.556512		13.452782		5.813463		58.453994		468.239470		113.918058		-0.181582		0.000000		0.211605		3.033102		24.296766		5.911228		1.899139		-0.499464		-0.766787		0.381437		1.276216		1.867448		0.005904		-0.001949		-0.001531		-2.432466		-0.077257		0.396360		-0.350753		1.268751		1.860483		0.002685		-0.006371		-0.018655		
1.110333		-41.773227		1194.023067		432.052335		0.076603		0.000000		0.177899		-0.662903		18.952822		6.855505		63.707991		591.045719		152.368622		-0.178608		0.000000		0.205253		3.319593		30.797081		7.939324		1.843892		-0.434989		-0.833970		0.381424		1.276145		1.867498		0.004769		-0.002838		-0.000737		-2.381827		0.012476		0.332958		-0.350766		1.268751		1.860529		0.001784		-0.005338		-0.021184		
1.112909		-41.805139		1306.715579		374.477001		0.077844		0.000000		0.182604		-0.801652		25.058400		7.179511		63.616516		695.087458		180.258950		-0.173442		0.000000		0.198027		3.263343		35.655084		9.246552		1.807522		-0.365646		-0.852620		0.381420		1.276067		1.867536		0.003528		-0.003258		0.000662		-2.315473		0.057355		0.247343		-0.350791		1.268752		1.860567		0.000574		-0.004629		-0.022986		
1.115485		-46.243937		1407.215170		306.894796		0.080128		0.000000		0.188787		-1.010512		30.749903		6.705924		59.213743		777.124246		192.784783		-0.166350		0.000000		0.190426		2.913067		38.230803		9.484128		1.788263		-0.298909		-0.824654		0.381424		1.275988		1.867571		0.002495		-0.003203		0.002383		-2.234014		0.046772		0.149524		-0.350829		1.268754		1.860598		-0.000489		-0.004083		-0.023699		
1.118061		-55.145836		1501.280268		251.613391		0.082635		0.000000		0.195323		-1.293412		35.210819		5.901080		52.759825		839.757147		189.225260		-0.158126		0.000000		0.183407		2.408160		38.327008		8.636761		1.777717		-0.242224		-0.758918		0.381433		1.275918		1.867608		0.002070		-0.002786		0.004006		-2.145479		-0.018577		0.050503		-0.350875		1.268757		1.860625		-0.001041		-0.003502		-0.023193		
1.120636		-66.213739		1591.401805		225.351407		0.084470		0.000000		0.200966		-1.597752		38.400422		5.437664		47.051783		888.998106		173.445058		-0.150184		0.000000		0.178134		1.927006		36.404219		7.103596		1.765418		-0.204054		-0.670563		0.381448		1.275858		1.867652		0.002501		-0.002227		0.005093		-2.062725		-0.125067		-0.040581		-0.350924		1.268760		1.860651		-0.000957		-0.002782		-0.021630		
1.123212		-76.002013		1675.894860		234.377276		0.085094		0.000000		0.204732		-1.852859		40.856577		5.713905		44.533106		931.069080		152.294366		-0.144125		0.000000		0.175537		1.606523		33.586213		5.494834		1.743171		-0.193109		-0.577749		0.381463		1.275812		1.867704		0.003746		-0.001842		0.005326		-1.999147		-0.250742		-0.118157		-0.350973		1.268764		1.860680		-0.000368		-0.001975		-0.019394		
1.125788		-81.587279		1749.869713		273.867253		0.084409		0.000000		0.206167		-2.014917		43.215599		6.763725		46.534565		970.066040		133.276614		-0.141015		0.000000		0.175908		1.502083		31.313978		4.302771		1.707704		-0.214986		-0.497589		0.381479		1.275778		1.867763		0.005512		-0.001979		0.004616		-1.964889		-0.371793		-0.180295		-0.351015		1.268767		1.860709		0.000443		-0.001300		-0.016967		
1.128364		-81.767210		1807.145953		331.134075		0.082633		0.000000		0.205370		-2.074520		45.849832		8.401676		52.716474		1006.604772		122.182115		-0.140904		0.000000		0.178755		1.605461		30.656494		3.721166		1.662193		-0.267702		-0.441852		0.381494		1.275756		1.867827		0.007390		-0.002917		0.003153		-1.964026		-0.468721		-0.227668		-0.351049		1.268768		1.860741		0.001183		-0.001114		-0.014811		
1.130939		-77.222262		1842.378871		391.011591		0.080153		0.000000		0.202868		-2.043159		48.746814		10.345890		60.994832		1038.040128		121.507242		-0.142976		0.000000		0.183016		1.867102		31.774869		3.719392		1.615968		-0.339105		-0.414174		0.381508		1.275743		1.867893		0.009009		-0.004764		0.001362		-1.993106		-0.529947		-0.262094		-0.351074		1.268766		1.860770		0.001679		-0.001788		-0.013282		
